<svg width="29" height="29" viewBox="0 0 29 29" fill="none" xmlns="http://www.w3.org/2000/svg">
<path d="M4.46377 14.5951C4.4635 12.8712 4.91707 11.1775 5.77888 9.68439C6.6407 8.19128 7.88038 6.95135 9.37332 6.08925C10.8663 5.22714 12.5598 4.77324 14.2838 4.77317C16.0078 4.77311 17.7014 5.22687 19.1944 6.08886C19.3994 6.20538 19.6421 6.23611 19.8696 6.17434C20.0971 6.11257 20.2909 5.96332 20.4088 5.75916C20.5267 5.55499 20.559 5.31249 20.4988 5.08457C20.4385 4.85665 20.2906 4.66182 20.0872 4.54259C17.8747 3.26519 15.3025 2.75353 12.7695 3.08695C10.2365 3.42038 7.88439 4.58027 6.07781 6.38673C4.27123 8.19319 3.11119 10.5453 2.7776 13.0782C2.44401 15.6111 2.95551 18.1834 4.23277 20.396C5.51003 22.6086 7.48168 24.3379 9.84193 25.3158C12.2022 26.2937 14.8191 26.4654 17.287 25.8044C19.7548 25.1434 21.9355 23.6866 23.491 21.6599C25.0465 19.6333 25.8898 17.1499 25.8902 14.5951C25.8902 14.3584 25.7961 14.1313 25.6287 13.9639C25.4613 13.7964 25.2342 13.7024 24.9974 13.7024C24.7606 13.7024 24.5335 13.7964 24.3661 13.9639C24.1987 14.1313 24.1046 14.3584 24.1046 14.5951C24.1046 17.1997 23.07 19.6975 21.2283 21.5392C19.3866 23.3809 16.8887 24.4156 14.2842 24.4156C11.6797 24.4156 9.1818 23.3809 7.34011 21.5392C5.49842 19.6975 4.46377 17.1997 4.46377 14.5951Z" fill="#E95A0A"/>
<path d="M27.415 6.29953C27.498 6.21653 27.5638 6.11798 27.6088 6.00953C27.6537 5.90108 27.6768 5.78484 27.6768 5.66745C27.6768 5.55007 27.6537 5.43383 27.6088 5.32538C27.5638 5.21692 27.498 5.11838 27.415 5.03537C27.332 4.95237 27.2334 4.88653 27.125 4.8416C27.0165 4.79668 26.9003 4.77356 26.7829 4.77356C26.6655 4.77356 26.5493 4.79668 26.4408 4.8416C26.3324 4.88653 26.2338 4.95237 26.1508 5.03537L14.2842 16.9038L9.55966 12.1775C9.47666 12.0945 9.37812 12.0287 9.26966 11.9837C9.16121 11.9388 9.04497 11.9157 8.92759 11.9157C8.8102 11.9157 8.69396 11.9388 8.58551 11.9837C8.47705 12.0287 8.37851 12.0945 8.29551 12.1775C8.2125 12.2605 8.14666 12.3591 8.10174 12.4675C8.05681 12.576 8.03369 12.6922 8.03369 12.8096C8.03369 12.927 8.05681 13.0432 8.10174 13.1517C8.14666 13.2601 8.2125 13.3587 8.29551 13.4417L13.6521 18.7983C13.735 18.8814 13.8336 18.9474 13.942 18.9924C14.0505 19.0374 14.1668 19.0605 14.2842 19.0605C14.4016 19.0605 14.5179 19.0374 14.6264 18.9924C14.7348 18.9474 14.8333 18.8814 14.9163 18.7983L27.415 6.29953Z" fill="#E95A0A"/>
</svg>
