<svg width="29" height="29" viewBox="0 0 29 29" fill="none" xmlns="http://www.w3.org/2000/svg">
<path d="M4.46377 14.5953C4.4635 12.8713 4.91707 11.1776 5.77888 9.68451C6.6407 8.1914 7.88038 6.95147 9.37332 6.08937C10.8663 5.22726 12.5598 4.77336 14.2838 4.7733C16.0078 4.77323 17.7014 5.227 19.1944 6.08898C19.3994 6.20551 19.6421 6.23623 19.8696 6.17447C20.0971 6.1127 20.2909 5.96345 20.4088 5.75928C20.5267 5.55512 20.559 5.31261 20.4988 5.0847C20.4385 4.85678 20.2906 4.66194 20.0872 4.54271C17.8747 3.26531 15.3025 2.75365 12.7695 3.08708C10.2365 3.4205 7.88439 4.58039 6.07781 6.38685C4.27123 8.19332 3.11119 10.5454 2.7776 13.0783C2.44401 15.6113 2.95551 18.1835 4.23277 20.3961C5.51003 22.6087 7.48168 24.3381 9.84193 25.3159C12.2022 26.2938 14.8191 26.4656 17.287 25.8046C19.7548 25.1436 21.9355 23.6868 23.491 21.6601C25.0465 19.6334 25.8898 17.1501 25.8902 14.5953C25.8902 14.3585 25.7961 14.1314 25.6287 13.964C25.4613 13.7966 25.2342 13.7025 24.9974 13.7025C24.7606 13.7025 24.5335 13.7966 24.3661 13.964C24.1987 14.1314 24.1046 14.3585 24.1046 14.5953C24.1046 17.1998 23.07 19.6977 21.2283 21.5394C19.3866 23.381 16.8887 24.4157 14.2842 24.4157C11.6797 24.4157 9.1818 23.381 7.34011 21.5394C5.49842 19.6977 4.46377 17.1998 4.46377 14.5953Z" fill="#E95A0A"/>
<path d="M27.415 6.29965C27.498 6.21665 27.5638 6.11811 27.6088 6.00965C27.6537 5.9012 27.6768 5.78496 27.6768 5.66758C27.6768 5.55019 27.6537 5.43395 27.6088 5.3255C27.5638 5.21705 27.498 5.1185 27.415 5.0355C27.332 4.95249 27.2334 4.88665 27.125 4.84173C27.0165 4.7968 26.9003 4.77368 26.7829 4.77368C26.6655 4.77368 26.5493 4.7968 26.4408 4.84173C26.3324 4.88665 26.2338 4.95249 26.1508 5.0355L14.2842 16.9039L9.55966 12.1776C9.47666 12.0946 9.37812 12.0288 9.26966 11.9839C9.16121 11.9389 9.04497 11.9158 8.92759 11.9158C8.8102 11.9158 8.69396 11.9389 8.58551 11.9839C8.47705 12.0288 8.37851 12.0946 8.29551 12.1776C8.2125 12.2606 8.14666 12.3592 8.10174 12.4676C8.05681 12.5761 8.03369 12.6923 8.03369 12.8097C8.03369 12.9271 8.05681 13.0433 8.10174 13.1518C8.14666 13.2602 8.2125 13.3588 8.29551 13.4418L13.6521 18.7984C13.735 18.8815 13.8336 18.9475 13.942 18.9925C14.0505 19.0375 14.1668 19.0607 14.2842 19.0607C14.4016 19.0607 14.5179 19.0375 14.6264 18.9925C14.7348 18.9475 14.8333 18.8815 14.9163 18.7984L27.415 6.29965Z" fill="#E95A0A"/>
</svg>
