<svg width="22" height="22" viewBox="0 0 22 22" fill="none" xmlns="http://www.w3.org/2000/svg">
<g clip-path="url(#clip0_109_275)">
<path d="M21.9998 11.0673C21.9998 4.95404 17.0746 -0.00146484 10.9998 -0.00146484C4.92232 -8.98436e-05 -0.00292969 4.95404 -0.00292969 11.0687C-0.00292969 16.592 4.02032 21.1708 9.27832 22.0013V14.2669H6.48707V11.0687H9.28107V8.62804C9.28107 5.85466 10.9242 4.32291 13.4363 4.32291C14.6408 4.32291 15.8989 4.53878 15.8989 4.53878V7.26129H14.5116C13.1462 7.26129 12.7199 8.11516 12.7199 8.99104V11.0673H15.7697L15.2829 14.2655H12.7186V21.9999C17.9766 21.1694 21.9998 16.5907 21.9998 11.0673Z" fill="white"/>
</g>
<defs>
<clipPath id="clip0_109_275">
<rect width="22" height="22" fill="white"/>
</clipPath>
</defs>
</svg>
