<svg width="29" height="29" viewBox="0 0 29 29" fill="none" xmlns="http://www.w3.org/2000/svg">
<path d="M4.46383 14.5953C4.46356 12.8713 4.91713 11.1776 5.77894 9.68451C6.64076 8.1914 7.88044 6.95147 9.37338 6.08937C10.8663 5.22726 12.5599 4.77336 14.2839 4.7733C16.0079 4.77323 17.7015 5.227 19.1945 6.08898C19.3994 6.20551 19.6421 6.23623 19.8696 6.17447C20.0972 6.1127 20.291 5.96345 20.4089 5.75928C20.5268 5.55512 20.5591 5.31261 20.4988 5.0847C20.4386 4.85678 20.2906 4.66194 20.0872 4.54271C17.8747 3.26531 15.3025 2.75365 12.7696 3.08708C10.2366 3.4205 7.88445 4.58039 6.07787 6.38685C4.27129 8.19332 3.11125 10.5454 2.77766 13.0783C2.44407 15.6113 2.95557 18.1835 4.23283 20.3961C5.51009 22.6087 7.48174 24.3381 9.84199 25.3159C12.2022 26.2938 14.8192 26.4656 17.287 25.8046C19.7548 25.1436 21.9356 23.6868 23.4911 21.6601C25.0466 19.6334 25.8899 17.1501 25.8902 14.5953C25.8902 14.3585 25.7962 14.1314 25.6287 13.964C25.4613 13.7966 25.2342 13.7025 24.9975 13.7025C24.7607 13.7025 24.5336 13.7966 24.3662 13.964C24.1987 14.1314 24.1047 14.3585 24.1047 14.5953C24.1047 17.1998 23.07 19.6977 21.2284 21.5394C19.3867 23.381 16.8888 24.4157 14.2843 24.4157C11.6797 24.4157 9.18186 23.381 7.34017 21.5394C5.49848 19.6977 4.46383 17.1998 4.46383 14.5953Z" fill="#E95A0A"/>
<path d="M27.4151 6.29965C27.4981 6.21665 27.5639 6.11811 27.6088 6.00965C27.6537 5.9012 27.6769 5.78496 27.6769 5.66758C27.6769 5.55019 27.6537 5.43395 27.6088 5.3255C27.5639 5.21705 27.4981 5.1185 27.4151 5.0355C27.332 4.95249 27.2335 4.88665 27.1251 4.84173C27.0166 4.7968 26.9004 4.77368 26.783 4.77368C26.6656 4.77368 26.5493 4.7968 26.4409 4.84173C26.3324 4.88665 26.2339 4.95249 26.1509 5.0355L14.2842 16.9039L9.55973 12.1776C9.47672 12.0946 9.37818 12.0288 9.26973 11.9839C9.16127 11.9389 9.04503 11.9158 8.92765 11.9158C8.81026 11.9158 8.69402 11.9389 8.58557 11.9839C8.47712 12.0288 8.37857 12.0946 8.29557 12.1776C8.21256 12.2606 8.14672 12.3592 8.1018 12.4676C8.05687 12.5761 8.03375 12.6923 8.03375 12.8097C8.03375 12.9271 8.05687 13.0433 8.1018 13.1518C8.14672 13.2602 8.21256 13.3588 8.29557 13.4418L13.6522 18.7984C13.7351 18.8815 13.8336 18.9475 13.9421 18.9925C14.0505 19.0375 14.1668 19.0607 14.2842 19.0607C14.4017 19.0607 14.518 19.0375 14.6264 18.9925C14.7349 18.9475 14.8334 18.8815 14.9163 18.7984L27.4151 6.29965Z" fill="#E95A0A"/>
</svg>
