<svg width="32" height="32" viewBox="0 0 32 32" fill="none" xmlns="http://www.w3.org/2000/svg">
<path d="M19 0C19.2652 0 19.5196 0.105357 19.7071 0.292893C19.8946 0.48043 20 0.734784 20 1C20 1.26522 20.1054 1.51957 20.2929 1.70711C20.4804 1.89464 20.7348 2 21 2C21.2652 2 21.5196 2.10536 21.7071 2.29289C21.8946 2.48043 22 2.73478 22 3V4C22 4.26522 21.8946 4.51957 21.7071 4.70711C21.5196 4.89464 21.2652 5 21 5H11C10.7348 5 10.4804 4.89464 10.2929 4.70711C10.1054 4.51957 10 4.26522 10 4V3C10 2.73478 10.1054 2.48043 10.2929 2.29289C10.4804 2.10536 10.7348 2 11 2C11.2652 2 11.5196 1.89464 11.7071 1.70711C11.8946 1.51957 12 1.26522 12 1C12 0.734784 12.1054 0.48043 12.2929 0.292893C12.4804 0.105357 12.7348 0 13 0L19 0Z" fill="#E95A0A"/>
<path d="M6 5C6 4.73478 6.10536 4.48043 6.29289 4.29289C6.48043 4.10536 6.73478 4 7 4H8C8.26522 4 8.51957 3.89464 8.70711 3.70711C8.89464 3.51957 9 3.26522 9 3C9 2.73478 8.89464 2.48043 8.70711 2.29289C8.51957 2.10536 8.26522 2 8 2H7C6.20435 2 5.44129 2.31607 4.87868 2.87868C4.31607 3.44129 4 4.20435 4 5V29C4 29.7956 4.31607 30.5587 4.87868 31.1213C5.44129 31.6839 6.20435 32 7 32H25C25.7956 32 26.5587 31.6839 27.1213 31.1213C27.6839 30.5587 28 29.7956 28 29V5C28 4.20435 27.6839 3.44129 27.1213 2.87868C26.5587 2.31607 25.7956 2 25 2H24C23.7348 2 23.4804 2.10536 23.2929 2.29289C23.1054 2.48043 23 2.73478 23 3C23 3.26522 23.1054 3.51957 23.2929 3.70711C23.4804 3.89464 23.7348 4 24 4H25C25.2652 4 25.5196 4.10536 25.7071 4.29289C25.8946 4.48043 26 4.73478 26 5V29C26 29.2652 25.8946 29.5196 25.7071 29.7071C25.5196 29.8946 25.2652 30 25 30H7C6.73478 30 6.48043 29.8946 6.29289 29.7071C6.10536 29.5196 6 29.2652 6 29V5Z" fill="#E95A0A"/>
<path d="M21.708 15.708C21.8958 15.5203 22.0012 15.2656 22.0012 15C22.0012 14.7345 21.8958 14.4798 21.708 14.292C21.5202 14.1043 21.2655 13.9988 21 13.9988C20.7344 13.9988 20.4798 14.1043 20.292 14.292L15 19.586L12.708 17.292C12.5202 17.1043 12.2655 16.9988 12 16.9988C11.7344 16.9988 11.4798 17.1043 11.292 17.292C11.1042 17.4798 10.9987 17.7345 10.9987 18C10.9987 18.2656 11.1042 18.5203 11.292 18.708L14.292 21.708C14.3849 21.8012 14.4952 21.8751 14.6167 21.9255C14.7382 21.9759 14.8684 22.0018 15 22.0018C15.1315 22.0018 15.2618 21.9759 15.3832 21.9255C15.5047 21.8751 15.6151 21.8012 15.708 21.708L21.708 15.708Z" fill="#E95A0A"/>
</svg>
