<svg width="32" height="32" viewBox="0 0 32 32" fill="none" xmlns="http://www.w3.org/2000/svg">
<g clip-path="url(#clip0_109_51)">
<path d="M16 0C11.7565 0 7.68687 1.68571 4.68629 4.68629C1.68571 7.68687 0 11.7565 0 16C0 20.2435 1.68571 24.3131 4.68629 27.3137C7.68687 30.3143 11.7565 32 16 32C20.2435 32 24.3131 30.3143 27.3137 27.3137C30.3143 24.3131 32 20.2435 32 16C32 11.7565 30.3143 7.68687 27.3137 4.68629C24.3131 1.68571 20.2435 0 16 0ZM4.08 8.652C4.73 11.31 9.144 13.732 11.514 15.032C12.474 15.558 13.1 15.9 13 16C12.8387 16.16 12.6773 16.316 12.516 16.468C11.684 17.26 10.942 17.966 11 19C11.07 20.268 12.236 20.648 13.428 21.034C14.582 21.41 15.764 21.794 16 23C16.164 23.834 15.85 24.976 15.56 26.04C15.13 27.604 14.748 29 16 29C19 28 23.596 22.628 24 19C24.276 16.514 20 15 17 14C16.044 13.68 15.49 14.162 15.02 14.568C14.676 14.868 14.376 15.126 14 15C13.11 14.704 9 11 11 10C12.56 9.22 12.904 9.658 13.454 10.364C13.61 10.562 13.78 10.78 14 11C15.218 11.608 15.324 10.736 15.446 9.734C15.524 9.09 15.608 8.392 16 8C16.868 7.132 18.53 6.418 20.056 5.76C21.48 5.148 22.786 4.586 23.214 4C25.5925 5.43026 27.4921 7.53518 28.6718 10.0474C29.8514 12.5596 30.2577 15.3657 29.8391 18.1094C29.4205 20.853 28.1959 23.4103 26.3208 25.4564C24.4457 27.5026 22.0048 28.9453 19.308 29.6012C16.6113 30.2571 13.7804 30.0967 11.175 29.1404C8.56964 28.184 6.30728 26.4749 4.67533 24.23C3.04337 21.9851 2.11546 19.3059 2.00946 16.5325C1.90346 13.7592 2.62416 11.0149 4.08 8.652Z" fill="#E95A0A"/>
</g>
<defs>
<clipPath id="clip0_109_51">
<rect width="32" height="32" fill="white"/>
</clipPath>
</defs>
</svg>
