<svg width="32" height="32" viewBox="0 0 32 32" fill="none" xmlns="http://www.w3.org/2000/svg">
<path d="M5.94 2.7C6.12777 2.48047 6.36087 2.30422 6.62327 2.18338C6.88566 2.06254 7.17112 1.99998 7.46 2H24.54C24.8289 1.99998 25.1143 2.06254 25.3767 2.18338C25.6391 2.30422 25.8722 2.48047 26.06 2.7L31.278 8.788C31.7439 9.33166 32 10.024 32 10.74V11.25C32.0001 12.24 31.6909 13.2052 31.1156 14.0108C30.5404 14.8165 29.7277 15.4223 28.7914 15.7435C27.855 16.0647 26.8416 16.0854 25.8929 15.8025C24.9442 15.5197 24.1076 14.9475 23.5 14.166C23.0564 14.7376 22.4878 15.2001 21.8378 15.518C21.1878 15.8359 20.4736 16.0008 19.75 16C19.0264 16.0008 18.3122 15.8359 17.6622 15.518C17.0122 15.2001 16.4436 14.7376 16 14.166C15.5564 14.7376 14.9878 15.2001 14.3378 15.518C13.6878 15.8359 12.9736 16.0008 12.25 16C11.5264 16.0008 10.8122 15.8359 10.1622 15.518C9.51222 15.2001 8.94362 14.7376 8.5 14.166C7.89238 14.9475 7.05576 15.5197 6.10707 15.8025C5.15838 16.0854 4.14503 16.0647 3.20865 15.7435C2.27227 15.4223 1.45965 14.8165 0.884365 14.0108C0.309084 13.2052 -0.000109197 12.24 2.89291e-08 11.25V10.74C2.52151e-05 10.024 0.256113 9.33166 0.722 8.788L5.94 2.7ZM9.5 11.25C9.5 11.9793 9.78973 12.6788 10.3055 13.1945C10.8212 13.7103 11.5207 14 12.25 14C12.9793 14 13.6788 13.7103 14.1945 13.1945C14.7103 12.6788 15 11.9793 15 11.25C15 10.9848 15.1054 10.7304 15.2929 10.5429C15.4804 10.3554 15.7348 10.25 16 10.25C16.2652 10.25 16.5196 10.3554 16.7071 10.5429C16.8946 10.7304 17 10.9848 17 11.25C17 11.9793 17.2897 12.6788 17.8055 13.1945C18.3212 13.7103 19.0207 14 19.75 14C20.4793 14 21.1788 13.7103 21.6945 13.1945C22.2103 12.6788 22.5 11.9793 22.5 11.25C22.5 10.9848 22.6054 10.7304 22.7929 10.5429C22.9804 10.3554 23.2348 10.25 23.5 10.25C23.7652 10.25 24.0196 10.3554 24.2071 10.5429C24.3946 10.7304 24.5 10.9848 24.5 11.25C24.5 11.9793 24.7897 12.6788 25.3055 13.1945C25.8212 13.7103 26.5207 14 27.25 14C27.9793 14 28.6788 13.7103 29.1945 13.1945C29.7103 12.6788 30 11.9793 30 11.25V10.74C30 10.5017 29.9149 10.2711 29.76 10.09L24.54 4H7.46L2.24 10.09C2.08509 10.2711 1.99998 10.5017 2 10.74V11.25C2 11.9793 2.28973 12.6788 2.80546 13.1945C3.32118 13.7103 4.02065 14 4.75 14C5.47935 14 6.17882 13.7103 6.69454 13.1945C7.21027 12.6788 7.5 11.9793 7.5 11.25C7.5 10.9848 7.60536 10.7304 7.79289 10.5429C7.98043 10.3554 8.23478 10.25 8.5 10.25C8.76522 10.25 9.01957 10.3554 9.20711 10.5429C9.39464 10.7304 9.5 10.9848 9.5 11.25ZM3 17C3.26522 17 3.51957 17.1054 3.70711 17.2929C3.89464 17.4804 4 17.7348 4 18V30H28V18C28 17.7348 28.1054 17.4804 28.2929 17.2929C28.4804 17.1054 28.7348 17 29 17C29.2652 17 29.5196 17.1054 29.7071 17.2929C29.8946 17.4804 30 17.7348 30 18V30H31C31.2652 30 31.5196 30.1054 31.7071 30.2929C31.8946 30.4804 32 30.7348 32 31C32 31.2652 31.8946 31.5196 31.7071 31.7071C31.5196 31.8946 31.2652 32 31 32H1C0.734784 32 0.48043 31.8946 0.292893 31.7071C0.105357 31.5196 2.89291e-08 31.2652 2.89291e-08 31C2.89291e-08 30.7348 0.105357 30.4804 0.292893 30.2929C0.48043 30.1054 0.734784 30 1 30H2V18C2 17.7348 2.10536 17.4804 2.29289 17.2929C2.48043 17.1054 2.73478 17 3 17ZM7 18C7.26522 18 7.51957 18.1054 7.70711 18.2929C7.89464 18.4804 8 18.7348 8 19V26H24V19C24 18.7348 24.1054 18.4804 24.2929 18.2929C24.4804 18.1054 24.7348 18 25 18C25.2652 18 25.5196 18.1054 25.7071 18.2929C25.8946 18.4804 26 18.7348 26 19V26C26 26.5304 25.7893 27.0391 25.4142 27.4142C25.0391 27.7893 24.5304 28 24 28H8C7.46957 28 6.96086 27.7893 6.58579 27.4142C6.21071 27.0391 6 26.5304 6 26V19C6 18.7348 6.10536 18.4804 6.29289 18.2929C6.48043 18.1054 6.73478 18 7 18Z" fill="#E95A0A"/>
</svg>
