<svg width="22" height="22" viewBox="0 0 22 22" fill="none" xmlns="http://www.w3.org/2000/svg">
<g clip-path="url(#clip0_109_243)">
<path d="M22.0001 11.0673C22.0001 4.95404 17.0748 -0.00146484 11.0001 -0.00146484C4.92256 -8.98436e-05 -0.00268555 4.95404 -0.00268555 11.0687C-0.00268555 16.592 4.02056 21.1708 9.27856 22.0013V14.2669H6.48731V11.0687H9.28131V8.62804C9.28131 5.85466 10.9244 4.32291 13.4366 4.32291C14.6411 4.32291 15.8992 4.53878 15.8992 4.53878V7.26129H14.5118C13.1464 7.26129 12.7202 8.11516 12.7202 8.99104V11.0673H15.7699L15.2832 14.2655H12.7188V21.9999C17.9768 21.1694 22.0001 16.5907 22.0001 11.0673Z" fill="white"/>
</g>
<defs>
<clipPath id="clip0_109_243">
<rect width="22" height="22" fill="white"/>
</clipPath>
</defs>
</svg>
