<svg width="22" height="22" viewBox="0 0 22 22" fill="none" xmlns="http://www.w3.org/2000/svg">
<g clip-path="url(#clip0_201_74)">
<path d="M21.9999 11.0673C21.9999 4.95404 17.0747 -0.00146484 10.9999 -0.00146484C4.92244 -8.98436e-05 -0.00280762 4.95404 -0.00280762 11.0687C-0.00280762 16.592 4.02044 21.1708 9.27844 22.0013V14.2669H6.48719V11.0687H9.28119V8.62804C9.28119 5.85466 10.9243 4.32291 13.4364 4.32291C14.6409 4.32291 15.8991 4.53878 15.8991 4.53878V7.26129H14.5117C13.1463 7.26129 12.7201 8.11516 12.7201 8.99104V11.0673H15.7698L15.2831 14.2655H12.7187V21.9999C17.9767 21.1694 21.9999 16.5907 21.9999 11.0673Z" fill="white"/>
</g>
<defs>
<clipPath id="clip0_201_74">
<rect width="22" height="22" fill="white"/>
</clipPath>
</defs>
</svg>
