<svg width="32" height="32" viewBox="0 0 32 32" fill="none" xmlns="http://www.w3.org/2000/svg">
<g clip-path="url(#clip0_109_59)">
<path d="M16.372 2.22594C16.1332 2.13025 15.8668 2.13025 15.628 2.22594L3.692 6.99994L8.5 8.92194L20.808 3.99994L16.372 2.22594ZM23.5 5.07794L11.192 9.99994L16 11.9219L28.308 6.99994L23.5 5.07794ZM30 8.47794L17 13.6779V29.5219L30 24.3219V8.47794ZM15 29.5239V13.6759L2 8.47794V24.3239L15 29.5239ZM14.886 0.367944C15.6011 0.081942 16.3989 0.081942 17.114 0.367944L31.372 6.07194C31.5574 6.14624 31.7163 6.27433 31.8282 6.43972C31.9401 6.60512 32 6.80024 32 6.99994V24.3239C31.9997 24.7236 31.8798 25.114 31.6555 25.4448C31.4313 25.7756 31.1131 26.0317 30.742 26.1799L16.372 31.9279C16.1332 32.0236 15.8668 32.0236 15.628 31.9279L1.26 26.1799C0.888502 26.032 0.569885 25.7761 0.345284 25.4452C0.120683 25.1144 0.000412659 24.7238 0 24.3239L0 6.99994C4.64799e-05 6.80024 0.0598875 6.60512 0.171814 6.43972C0.283741 6.27433 0.442625 6.14624 0.628 6.07194L14.886 0.367944Z" fill="#E95A0A"/>
</g>
<defs>
<clipPath id="clip0_109_59">
<rect width="32" height="32" fill="white"/>
</clipPath>
</defs>
</svg>
