<svg width="22" height="22" viewBox="0 0 22 22" fill="none" xmlns="http://www.w3.org/2000/svg">
<g clip-path="url(#clip0_109_147)">
<path d="M22 11.0673C22 4.95404 17.0748 -0.00146484 11 -0.00146484C4.9225 -8.98436e-05 -0.00274658 4.95404 -0.00274658 11.0687C-0.00274658 16.592 4.0205 21.1708 9.2785 22.0013V14.2669H6.48725V11.0687H9.28125V8.62804C9.28125 5.85466 10.9244 4.32291 13.4365 4.32291C14.641 4.32291 15.8991 4.53878 15.8991 4.53878V7.26129H14.5118C13.1464 7.26129 12.7201 8.11516 12.7201 8.99104V11.0673H15.7699L15.2831 14.2655H12.7188V21.9999C17.9768 21.1694 22 16.5907 22 11.0673Z" fill="white"/>
</g>
<defs>
<clipPath id="clip0_109_147">
<rect width="22" height="22" fill="white"/>
</clipPath>
</defs>
</svg>
