<svg width="32" height="32" viewBox="0 0 32 32" fill="none" xmlns="http://www.w3.org/2000/svg">
<path d="M10.676 3.18C8.77109 3.70464 6.8792 4.27547 5.00201 4.892C4.83047 4.94732 4.67797 5.04982 4.56195 5.18776C4.44594 5.3257 4.37111 5.49351 4.34601 5.672C3.23801 13.986 5.79801 20.052 8.85201 24.048C10.1445 25.7573 11.6863 27.2627 13.426 28.514C14.118 29.002 14.73 29.354 15.212 29.58C15.452 29.6933 15.6473 29.772 15.798 29.816C15.8644 29.8362 15.9319 29.8528 16 29.866C16.0675 29.8528 16.1342 29.8361 16.2 29.816C16.352 29.7707 16.548 29.692 16.788 29.58C17.268 29.354 17.882 29 18.574 28.514C20.3137 27.2627 21.8555 25.7573 23.148 24.048C26.202 20.054 28.762 13.986 27.654 5.672C27.6289 5.49351 27.5541 5.3257 27.4381 5.18776C27.3221 5.04982 27.1696 4.94732 26.998 4.892C25.696 4.466 23.498 3.772 21.324 3.182C19.104 2.58 17.062 2.134 16 2.134C14.94 2.134 12.896 2.578 10.676 3.18ZM10.144 1.12C12.314 0.53 14.62 0 16 0C17.38 0 19.686 0.53 21.856 1.12C24.076 1.72 26.314 2.43 27.63 2.86C28.1802 3.0417 28.668 3.37493 29.0374 3.8214C29.4067 4.26787 29.6426 4.80948 29.718 5.384C30.91 14.338 28.144 20.974 24.788 25.364C23.3643 27.2415 21.6675 28.8951 19.754 30.27C19.0931 30.7469 18.3917 31.1651 17.658 31.52C17.098 31.784 16.496 32 16 32C15.504 32 14.904 31.784 14.342 31.52C13.6083 31.1651 12.907 30.7469 12.246 30.27C10.3325 28.8951 8.6357 27.2415 7.21201 25.364C3.85601 20.974 1.09001 14.338 2.28201 5.384C2.35739 4.80948 2.5933 4.26787 2.96264 3.8214C3.33199 3.37493 3.81979 3.0417 4.37001 2.86C6.28052 2.23402 8.20574 1.65385 10.144 1.12Z" fill="#E95A0A"/>
<path d="M21.708 10.2921C21.8011 10.385 21.875 10.4953 21.9254 10.6168C21.9759 10.7383 22.0018 10.8685 22.0018 11.0001C22.0018 11.1316 21.9759 11.2619 21.9254 11.3833C21.875 11.5048 21.8011 11.6152 21.708 11.7081L15.708 17.7081C15.6151 17.8012 15.5048 17.8751 15.3833 17.9255C15.2618 17.9759 15.1315 18.0019 15 18.0019C14.8685 18.0019 14.7382 17.9759 14.6167 17.9255C14.4953 17.8751 14.3849 17.8012 14.292 17.7081L11.292 14.7081C11.199 14.6151 11.1253 14.5047 11.075 14.3832C11.0246 14.2618 10.9987 14.1316 10.9987 14.0001C10.9987 13.8686 11.0246 13.7384 11.075 13.6169C11.1253 13.4954 11.199 13.3851 11.292 13.2921C11.385 13.1991 11.4954 13.1253 11.6168 13.075C11.7383 13.0247 11.8685 12.9988 12 12.9988C12.1315 12.9988 12.2617 13.0247 12.3832 13.075C12.5047 13.1253 12.615 13.1991 12.708 13.2921L15 15.5861L20.292 10.2921C20.3849 10.199 20.4953 10.1251 20.6167 10.0747C20.7382 10.0242 20.8685 9.99829 21 9.99829C21.1315 9.99829 21.2618 10.0242 21.3833 10.0747C21.5048 10.1251 21.6151 10.199 21.708 10.2921Z" fill="#E95A0A"/>
</svg>
