<svg width="36" height="36" viewBox="0 0 36 36" fill="none" xmlns="http://www.w3.org/2000/svg">
<path d="M4.91379e-09 7.875C4.91379e-09 6.97989 0.355579 6.12145 0.988515 5.48851C1.62145 4.85558 2.47989 4.5 3.375 4.5H23.625C24.5201 4.5 25.3786 4.85558 26.0115 5.48851C26.6444 6.12145 27 6.97989 27 7.875V11.25H29.295C29.8007 11.2505 30.2998 11.3645 30.7554 11.5838C31.2111 11.803 31.6116 12.1219 31.9275 12.5168L35.2598 16.6793C35.7392 17.2782 36.0003 18.0226 36 18.7897V23.625C36 24.5201 35.6444 25.3786 35.0115 26.0115C34.3786 26.6444 33.5201 27 32.625 27H31.5C31.5 28.1935 31.0259 29.3381 30.182 30.182C29.3381 31.0259 28.1935 31.5 27 31.5C25.8065 31.5 24.6619 31.0259 23.818 30.182C22.9741 29.3381 22.5 28.1935 22.5 27H11.25C11.2513 27.5998 11.1327 28.1938 10.9011 28.7471C10.6695 29.3004 10.3296 29.8019 9.90146 30.2219C9.47329 30.642 8.96547 30.9722 8.40784 31.1932C7.85022 31.4142 7.25404 31.5214 6.65436 31.5087C6.05468 31.4959 5.4636 31.3634 4.91587 31.119C4.36814 30.8745 3.87481 30.523 3.46488 30.0851C3.05496 29.6472 2.73671 29.1318 2.52885 28.5691C2.32099 28.0065 2.22771 27.408 2.2545 26.8088C1.59536 26.5768 1.02448 26.1459 0.62065 25.5756C0.216823 25.0053 -3.76919e-05 24.3238 4.91379e-09 23.625L4.91379e-09 7.875ZM2.9115 24.651C3.31873 23.9855 3.89198 23.4374 4.57499 23.0603C5.25799 22.6833 6.0273 22.4903 6.80741 22.5003C7.58752 22.5102 8.35163 22.7229 9.02477 23.1173C9.6979 23.5117 10.2569 24.0743 10.647 24.75H23.103C23.4979 24.066 24.066 23.4979 24.75 23.103V7.875C24.75 7.57663 24.6315 7.29048 24.4205 7.0795C24.2095 6.86853 23.9234 6.75 23.625 6.75H3.375C3.07663 6.75 2.79048 6.86853 2.5795 7.0795C2.36853 7.29048 2.25 7.57663 2.25 7.875V23.625C2.24982 23.8415 2.31214 24.0535 2.42948 24.2355C2.54682 24.4175 2.71419 24.5618 2.9115 24.651ZM27 22.5C27.7899 22.5 28.5659 22.708 29.2499 23.1029C29.934 23.4979 30.5021 24.0659 30.897 24.75H32.625C32.9234 24.75 33.2095 24.6315 33.4205 24.4205C33.6315 24.2095 33.75 23.9234 33.75 23.625V18.7875C33.7495 18.5322 33.6623 18.2846 33.5025 18.0855L30.1725 13.923C30.0673 13.7912 29.9338 13.6848 29.7819 13.6116C29.63 13.5384 29.4636 13.5002 29.295 13.5H27V22.5ZM6.75 24.75C6.15326 24.75 5.58097 24.9871 5.15901 25.409C4.73705 25.831 4.5 26.4033 4.5 27C4.5 27.5967 4.73705 28.169 5.15901 28.591C5.58097 29.0129 6.15326 29.25 6.75 29.25C7.34674 29.25 7.91903 29.0129 8.34099 28.591C8.76295 28.169 9 27.5967 9 27C9 26.4033 8.76295 25.831 8.34099 25.409C7.91903 24.9871 7.34674 24.75 6.75 24.75ZM27 24.75C26.4033 24.75 25.831 24.9871 25.409 25.409C24.9871 25.831 24.75 26.4033 24.75 27C24.75 27.5967 24.9871 28.169 25.409 28.591C25.831 29.0129 26.4033 29.25 27 29.25C27.5967 29.25 28.169 29.0129 28.591 28.591C29.0129 28.169 29.25 27.5967 29.25 27C29.25 26.4033 29.0129 25.831 28.591 25.409C28.169 24.9871 27.5967 24.75 27 24.75Z" fill="#E95A0A"/>
</svg>
