<svg width="29" height="30" viewBox="0 0 29 30" fill="none" xmlns="http://www.w3.org/2000/svg">
<path d="M4.46377 15C4.4635 13.2761 4.91707 11.5824 5.77888 10.0893C6.6407 8.59619 7.88038 7.35626 9.37332 6.49415C10.8663 5.63205 12.5598 5.17815 14.2838 5.17808C16.0078 5.17801 17.7014 5.63178 19.1944 6.49377C19.3994 6.61029 19.6421 6.64102 19.8696 6.57925C20.0971 6.51748 20.2909 6.36823 20.4088 6.16407C20.5267 5.9599 20.559 5.7174 20.4988 5.48948C20.4385 5.26156 20.2906 5.06673 20.0872 4.9475C17.8747 3.6701 15.3025 3.15843 12.7695 3.49186C10.2365 3.82529 7.88439 4.98518 6.07781 6.79164C4.27123 8.5981 3.11119 10.9502 2.7776 13.4831C2.44401 16.0161 2.95551 18.5883 4.23277 20.8009C5.51003 23.0135 7.48168 24.7428 9.84193 25.7207C12.2022 26.6986 14.8191 26.8703 17.287 26.2093C19.7548 25.5483 21.9355 24.0915 23.491 22.0649C25.0465 20.0382 25.8898 17.5549 25.8902 15C25.8902 14.7633 25.7961 14.5362 25.6287 14.3688C25.4613 14.2013 25.2342 14.1073 24.9974 14.1073C24.7606 14.1073 24.5335 14.2013 24.3661 14.3688C24.1987 14.5362 24.1046 14.7633 24.1046 15C24.1046 17.6046 23.07 20.1025 21.2283 21.9441C19.3866 23.7858 16.8887 24.8205 14.2842 24.8205C11.6797 24.8205 9.1818 23.7858 7.34011 21.9441C5.49842 20.1025 4.46377 17.6046 4.46377 15Z" fill="#E95A0A"/>
<path d="M27.415 6.70444C27.498 6.62143 27.5638 6.52289 27.6088 6.41444C27.6537 6.30599 27.6768 6.18975 27.6768 6.07236C27.6768 5.95497 27.6537 5.83873 27.6088 5.73028C27.5638 5.62183 27.498 5.52329 27.415 5.44028C27.332 5.35728 27.2334 5.29143 27.125 5.24651C27.0165 5.20159 26.9003 5.17847 26.7829 5.17847C26.6655 5.17847 26.5493 5.20159 26.4408 5.24651C26.3324 5.29143 26.2338 5.35728 26.1508 5.44028L14.2842 17.3087L9.55966 12.5824C9.47666 12.4994 9.37812 12.4336 9.26966 12.3886C9.16121 12.3437 9.04497 12.3206 8.92759 12.3206C8.8102 12.3206 8.69396 12.3437 8.58551 12.3886C8.47705 12.4336 8.37851 12.4994 8.29551 12.5824C8.2125 12.6654 8.14666 12.764 8.10174 12.8724C8.05681 12.9809 8.03369 13.0971 8.03369 13.2145C8.03369 13.3319 8.05681 13.4481 8.10174 13.5566C8.14666 13.665 8.2125 13.7636 8.29551 13.8466L13.6521 19.2032C13.735 19.2863 13.8336 19.3523 13.942 19.3973C14.0505 19.4423 14.1668 19.4655 14.2842 19.4655C14.4016 19.4655 14.5179 19.4423 14.6264 19.3973C14.7348 19.3523 14.8333 19.2863 14.9163 19.2032L27.415 6.70444Z" fill="#E95A0A"/>
</svg>
