<svg width="29" height="30" viewBox="0 0 29 30" fill="none" xmlns="http://www.w3.org/2000/svg">
<path d="M4.46377 14.9999C4.4635 13.2759 4.91707 11.5823 5.77888 10.0892C6.6407 8.59606 7.88038 7.35614 9.37332 6.49403C10.8663 5.63193 12.5598 5.17803 14.2838 5.17796C16.0078 5.17789 17.7014 5.63166 19.1944 6.49365C19.3994 6.61017 19.6421 6.6409 19.8696 6.57913C20.0971 6.51736 20.2909 6.36811 20.4088 6.16394C20.5267 5.95978 20.559 5.71728 20.4988 5.48936C20.4385 5.26144 20.2906 5.06661 20.0872 4.94738C17.8747 3.66997 15.3025 3.15831 12.7695 3.49174C10.2365 3.82517 7.88439 4.98505 6.07781 6.79152C4.27123 8.59798 3.11119 10.9501 2.7776 13.483C2.44401 16.0159 2.95551 18.5882 4.23277 20.8008C5.51003 23.0134 7.48168 24.7427 9.84193 25.7206C12.2022 26.6985 14.8191 26.8702 17.287 26.2092C19.7548 25.5482 21.9355 24.0914 23.491 22.0647C25.0465 20.038 25.8898 17.5547 25.8902 14.9999C25.8902 14.7631 25.7961 14.5361 25.6287 14.3686C25.4613 14.2012 25.2342 14.1072 24.9974 14.1072C24.7606 14.1072 24.5335 14.2012 24.3661 14.3686C24.1987 14.5361 24.1046 14.7631 24.1046 14.9999C24.1046 17.6045 23.07 20.1023 21.2283 21.944C19.3866 23.7857 16.8887 24.8204 14.2842 24.8204C11.6797 24.8204 9.1818 23.7857 7.34011 21.944C5.49842 20.1023 4.46377 17.6045 4.46377 14.9999Z" fill="#E95A0A"/>
<path d="M27.415 6.70432C27.498 6.62131 27.5638 6.52277 27.6088 6.41432C27.6537 6.30586 27.6768 6.18963 27.6768 6.07224C27.6768 5.95485 27.6537 5.83861 27.6088 5.73016C27.5638 5.62171 27.498 5.52317 27.415 5.44016C27.332 5.35715 27.2334 5.29131 27.125 5.24639C27.0165 5.20147 26.9003 5.17834 26.7829 5.17834C26.6655 5.17834 26.5493 5.20147 26.4408 5.24639C26.3324 5.29131 26.2338 5.35715 26.1508 5.44016L14.2842 17.3086L9.55966 12.5823C9.47666 12.4993 9.37812 12.4334 9.26966 12.3885C9.16121 12.3436 9.04497 12.3205 8.92759 12.3205C8.8102 12.3205 8.69396 12.3436 8.58551 12.3885C8.47705 12.4334 8.37851 12.4993 8.29551 12.5823C8.2125 12.6653 8.14666 12.7638 8.10174 12.8723C8.05681 12.9807 8.03369 13.097 8.03369 13.2144C8.03369 13.3318 8.05681 13.448 8.10174 13.5564C8.14666 13.6649 8.2125 13.7634 8.29551 13.8464L13.6521 19.203C13.735 19.2862 13.8336 19.3521 13.942 19.3972C14.0505 19.4422 14.1668 19.4653 14.2842 19.4653C14.4016 19.4653 14.5179 19.4422 14.6264 19.3972C14.7348 19.3521 14.8333 19.2862 14.9163 19.203L27.415 6.70432Z" fill="#E95A0A"/>
</svg>
