<svg width="29" height="29" viewBox="0 0 29 29" fill="none" xmlns="http://www.w3.org/2000/svg">
<path d="M4.46377 14.2842C4.4635 12.5603 4.91707 10.8666 5.77888 9.37347C6.6407 7.88037 7.88038 6.64044 9.37332 5.77833C10.8663 4.91623 12.5598 4.46233 14.2838 4.46226C16.0078 4.46219 17.7014 4.91596 19.1944 5.77795C19.3994 5.89447 19.6421 5.9252 19.8696 5.86343C20.0971 5.80166 20.2909 5.65241 20.4088 5.44825C20.5267 5.24408 20.559 5.00158 20.4988 4.77366C20.4385 4.54574 20.2906 4.35091 20.0872 4.23168C17.8747 2.95428 15.3025 2.44261 12.7695 2.77604C10.2365 3.10947 7.88439 4.26936 6.07781 6.07582C4.27123 7.88228 3.11119 10.2344 2.7776 12.7673C2.44401 15.3002 2.95551 17.8725 4.23277 20.0851C5.51003 22.2977 7.48168 24.027 9.84193 25.0049C12.2022 25.9828 14.8191 26.1545 17.287 25.4935C19.7548 24.8325 21.9355 23.3757 23.491 21.349C25.0465 19.3223 25.8898 16.839 25.8902 14.2842C25.8902 14.0475 25.7961 13.8204 25.6287 13.6529C25.4613 13.4855 25.2342 13.3915 24.9974 13.3915C24.7606 13.3915 24.5335 13.4855 24.3661 13.6529C24.1987 13.8204 24.1046 14.0475 24.1046 14.2842C24.1046 16.8888 23.07 19.3866 21.2283 21.2283C19.3866 23.07 16.8887 24.1047 14.2842 24.1047C11.6797 24.1047 9.1818 23.07 7.34011 21.2283C5.49842 19.3866 4.46377 16.8888 4.46377 14.2842Z" fill="#E95A0A"/>
<path d="M27.415 5.98862C27.498 5.90561 27.5638 5.80707 27.6088 5.69862C27.6537 5.59017 27.6768 5.47393 27.6768 5.35654C27.6768 5.23915 27.6537 5.12291 27.6088 5.01446C27.5638 4.90601 27.498 4.80747 27.415 4.72446C27.332 4.64146 27.2334 4.57561 27.125 4.53069C27.0165 4.48577 26.9003 4.46265 26.7829 4.46265C26.6655 4.46265 26.5493 4.48577 26.4408 4.53069C26.3324 4.57561 26.2338 4.64146 26.1508 4.72446L14.2842 16.5929L9.55966 11.8666C9.47666 11.7836 9.37812 11.7177 9.26966 11.6728C9.16121 11.6279 9.04497 11.6048 8.92759 11.6048C8.8102 11.6048 8.69396 11.6279 8.58551 11.6728C8.47705 11.7177 8.37851 11.7836 8.29551 11.8666C8.2125 11.9496 8.14666 12.0481 8.10174 12.1566C8.05681 12.265 8.03369 12.3813 8.03369 12.4987C8.03369 12.6161 8.05681 12.7323 8.10174 12.8407C8.14666 12.9492 8.2125 13.0477 8.29551 13.1307L13.6521 18.4873C13.735 18.5705 13.8336 18.6364 13.942 18.6815C14.0505 18.7265 14.1668 18.7496 14.2842 18.7496C14.4016 18.7496 14.5179 18.7265 14.6264 18.6815C14.7348 18.6364 14.8333 18.5705 14.9163 18.4873L27.415 5.98862Z" fill="#E95A0A"/>
</svg>
