<svg width="22" height="22" viewBox="0 0 22 22" fill="none" xmlns="http://www.w3.org/2000/svg">
<g clip-path="url(#clip0_109_497)">
<path d="M21.9998 11.0674C21.9998 4.95416 17.0746 -0.00134277 10.9998 -0.00134277C4.92232 3.22267e-05 -0.00292969 4.95416 -0.00292969 11.0688C-0.00292969 16.5922 4.02032 21.1709 9.27832 22.0014V14.267H6.48707V11.0688H9.28107V8.62816C9.28107 5.85478 10.9242 4.32303 13.4363 4.32303C14.6408 4.32303 15.8989 4.53891 15.8989 4.53891V7.26141H14.5116C13.1462 7.26141 12.7199 8.11528 12.7199 8.99116V11.0674H15.7697L15.2829 14.2657H12.7186V22C17.9766 21.1695 21.9998 16.5908 21.9998 11.0674Z" fill="white"/>
</g>
<defs>
<clipPath id="clip0_109_497">
<rect width="22" height="22" fill="white"/>
</clipPath>
</defs>
</svg>
