<svg width="30" height="31" viewBox="0 0 30 31" fill="none" xmlns="http://www.w3.org/2000/svg">
<g clip-path="url(#clip0_139_31)">
<path d="M15.3106 2.33492C15.0886 2.24597 14.841 2.24597 14.619 2.33492L3.52402 6.77254L7.99325 8.55911L19.434 3.98392L15.3106 2.33492ZM21.9363 4.98597L10.4956 9.56116L14.9648 11.3477L26.4056 6.77254L21.9363 4.98597ZM27.9783 8.1464L15.8943 12.98V27.7076L27.9783 22.874V8.1464ZM14.0353 27.7095V12.9781L1.95124 8.1464V22.8759L14.0353 27.7095ZM13.9293 0.607835C14.594 0.341985 15.3356 0.341985 16.0003 0.607835L29.2537 5.90993C29.426 5.97898 29.5737 6.09805 29.6777 6.25179C29.7818 6.40553 29.8374 6.5869 29.8374 6.77254V22.8759C29.8372 23.2474 29.7257 23.6103 29.5172 23.9178C29.3088 24.2253 29.013 24.4633 28.6681 24.6011L15.3106 29.9441C15.0886 30.033 14.841 30.033 14.619 29.9441L1.26338 24.6011C0.918061 24.4636 0.621893 24.2257 0.413118 23.9182C0.204343 23.6106 0.0925467 23.2476 0.0921631 22.8759L0.0921631 6.77254C0.0922063 6.5869 0.147831 6.40553 0.251871 6.25179C0.355911 6.09805 0.503601 5.97898 0.675914 5.90993L13.9293 0.607835Z" fill="#E95A0A"/>
</g>
<defs>
<clipPath id="clip0_139_31">
<rect width="29.7453" height="29.7453" fill="white" transform="translate(0.0921631 0.265625)"/>
</clipPath>
</defs>
</svg>
