<svg width="29" height="29" viewBox="0 0 29 29" fill="none" xmlns="http://www.w3.org/2000/svg">
<path d="M4.46377 14.5953C4.4635 12.8713 4.91707 11.1776 5.77888 9.68451C6.6407 8.1914 7.88038 6.95147 9.37332 6.08937C10.8663 5.22726 12.5598 4.77336 14.2838 4.7733C16.0078 4.77323 17.7014 5.227 19.1944 6.08898C19.3994 6.20551 19.6421 6.23623 19.8696 6.17447C20.0971 6.1127 20.2909 5.96345 20.4088 5.75928C20.5267 5.55512 20.559 5.31261 20.4988 5.0847C20.4385 4.85678 20.2906 4.66194 20.0872 4.54271C17.8747 3.26531 15.3025 2.75365 12.7695 3.08708C10.2365 3.4205 7.88439 4.58039 6.07781 6.38685C4.27123 8.19332 3.11119 10.5454 2.7776 13.0783C2.44401 15.6113 2.95551 18.1835 4.23277 20.3961C5.51003 22.6087 7.48168 24.3381 9.84193 25.3159C12.2022 26.2938 14.8191 26.4656 17.287 25.8046C19.7548 25.1436 21.9355 23.6868 23.491 21.6601C25.0465 19.6334 25.8898 17.1501 25.8902 14.5953C25.8902 14.3585 25.7961 14.1314 25.6287 13.964C25.4613 13.7966 25.2342 13.7025 24.9974 13.7025C24.7606 13.7025 24.5335 13.7966 24.3661 13.964C24.1987 14.1314 24.1046 14.3585 24.1046 14.5953C24.1046 17.1998 23.07 19.6977 21.2283 21.5394C19.3866 23.381 16.8887 24.4157 14.2842 24.4157C11.6797 24.4157 9.1818 23.381 7.34011 21.5394C5.49842 19.6977 4.46377 17.1998 4.46377 14.5953Z" fill="#E95A0A"/>
<path d="M27.4151 6.2999C27.4981 6.21689 27.564 6.11835 27.6089 6.0099C27.6538 5.90145 27.6769 5.78521 27.6769 5.66782C27.6769 5.55043 27.6538 5.43419 27.6089 5.32574C27.564 5.21729 27.4981 5.11875 27.4151 5.03574C27.3321 4.95274 27.2336 4.88689 27.1251 4.84197C27.0167 4.79705 26.9004 4.77393 26.783 4.77393C26.6656 4.77393 26.5494 4.79705 26.441 4.84197C26.3325 4.88689 26.234 4.95274 26.151 5.03574L14.2843 16.9042L9.55979 12.1779C9.47678 12.0949 9.37824 12.029 9.26979 11.9841C9.16133 11.9392 9.0451 11.9161 8.92771 11.9161C8.81032 11.9161 8.69408 11.9392 8.58563 11.9841C8.47718 12.029 8.37863 12.0949 8.29563 12.1779C8.21262 12.2609 8.14678 12.3594 8.10186 12.4679C8.05693 12.5763 8.03381 12.6926 8.03381 12.8099C8.03381 12.9273 8.05693 13.0436 8.10186 13.152C8.14678 13.2605 8.21262 13.359 8.29563 13.442L13.6522 18.7986C13.7352 18.8818 13.8337 18.9477 13.9421 18.9927C14.0506 19.0377 14.1669 19.0609 14.2843 19.0609C14.4017 19.0609 14.518 19.0377 14.6265 18.9927C14.7349 18.9477 14.8335 18.8818 14.9164 18.7986L27.4151 6.2999Z" fill="#E95A0A"/>
</svg>
