<svg width="29" height="30" viewBox="0 0 29 30" fill="none" xmlns="http://www.w3.org/2000/svg">
<path d="M4.46377 14.8794C4.4635 13.1555 4.91707 11.4618 5.77888 9.96869C6.6407 8.47558 7.88038 7.23565 9.37332 6.37355C10.8663 5.51144 12.5598 5.05754 14.2838 5.05748C16.0078 5.05741 17.7014 5.51118 19.1944 6.37316C19.3994 6.48969 19.6421 6.52041 19.8696 6.45865C20.0971 6.39688 20.2909 6.24763 20.4088 6.04346C20.5267 5.8393 20.559 5.59679 20.4988 5.36888C20.4385 5.14096 20.2906 4.94612 20.0872 4.82689C17.8747 3.54949 15.3025 3.03783 12.7695 3.37126C10.2365 3.70468 7.88439 4.86457 6.07781 6.67103C4.27123 8.4775 3.11119 10.8296 2.7776 13.3625C2.44401 15.8954 2.95551 18.4677 4.23277 20.6803C5.51003 22.8929 7.48168 24.6222 9.84193 25.6001C12.2022 26.578 14.8191 26.7497 17.287 26.0887C19.7548 25.4277 21.9355 23.9709 23.491 21.9442C25.0465 19.9176 25.8898 17.4342 25.8902 14.8794C25.8902 14.6427 25.7961 14.4156 25.6287 14.2482C25.4613 14.0807 25.2342 13.9867 24.9974 13.9867C24.7606 13.9867 24.5335 14.0807 24.3661 14.2482C24.1987 14.4156 24.1046 14.6427 24.1046 14.8794C24.1046 17.484 23.07 19.9818 21.2283 21.8235C19.3866 23.6652 16.8887 24.6999 14.2842 24.6999C11.6797 24.6999 9.1818 23.6652 7.34011 21.8235C5.49842 19.9818 4.46377 17.484 4.46377 14.8794Z" fill="#E95A0A"/>
<path d="M27.4151 6.58408C27.4981 6.50107 27.564 6.40253 27.6089 6.29408C27.6538 6.18563 27.6769 6.06939 27.6769 5.952C27.6769 5.83461 27.6538 5.71837 27.6089 5.60992C27.564 5.50147 27.4981 5.40293 27.4151 5.31992C27.3321 5.23692 27.2336 5.17107 27.1251 5.12615C27.0167 5.08123 26.9004 5.05811 26.783 5.05811C26.6656 5.05811 26.5494 5.08123 26.441 5.12615C26.3325 5.17107 26.234 5.23692 26.151 5.31992L14.2843 17.1884L9.55979 12.4621C9.47678 12.379 9.37824 12.3132 9.26979 12.2683C9.16133 12.2234 9.0451 12.2002 8.92771 12.2002C8.81032 12.2002 8.69408 12.2234 8.58563 12.2683C8.47718 12.3132 8.37863 12.379 8.29563 12.4621C8.21262 12.5451 8.14678 12.6436 8.10186 12.7521C8.05693 12.8605 8.03381 12.9767 8.03381 13.0941C8.03381 13.2115 8.05693 13.3278 8.10186 13.4362C8.14678 13.5447 8.21262 13.6432 8.29563 13.7262L13.6522 19.0828C13.7352 19.1659 13.8337 19.2319 13.9421 19.2769C14.0506 19.3219 14.1669 19.3451 14.2843 19.3451C14.4017 19.3451 14.518 19.3219 14.6265 19.2769C14.7349 19.2319 14.8335 19.1659 14.9164 19.0828L27.4151 6.58408Z" fill="#E95A0A"/>
</svg>
