<svg width="31" height="31" viewBox="0 0 31 31" fill="none" xmlns="http://www.w3.org/2000/svg">
<g clip-path="url(#clip0_139_47)">
<path d="M18.2629 0.40918C18.5102 0.40918 18.7473 0.507399 18.9221 0.682229C19.097 0.85706 19.1952 1.09418 19.1952 1.34143C19.1952 1.58868 19.2934 1.8258 19.4682 2.00063C19.6431 2.17546 19.8802 2.27368 20.1274 2.27368C20.3747 2.27368 20.6118 2.3719 20.7866 2.54673C20.9615 2.72156 21.0597 2.95868 21.0597 3.20593V4.13818C21.0597 4.38542 20.9615 4.62255 20.7866 4.79738C20.6118 4.97221 20.3747 5.07043 20.1274 5.07043H10.8049C10.5577 5.07043 10.3206 4.97221 10.1457 4.79738C9.9709 4.62255 9.87268 4.38542 9.87268 4.13818V3.20593C9.87268 2.95868 9.9709 2.72156 10.1457 2.54673C10.3206 2.3719 10.5577 2.27368 10.8049 2.27368C11.0522 2.27368 11.2893 2.17546 11.4641 2.00063C11.639 1.8258 11.7372 1.58868 11.7372 1.34143C11.7372 1.09418 11.8354 0.85706 12.0102 0.682229C12.1851 0.507399 12.4222 0.40918 12.6694 0.40918L18.2629 0.40918Z" fill="#E95A0A"/>
<path d="M6.14367 5.07043C6.14367 4.82318 6.24189 4.58606 6.41672 4.41123C6.59155 4.2364 6.82867 4.13818 7.07592 4.13818H8.00817C8.25542 4.13818 8.49254 4.03996 8.66737 3.86513C8.8422 3.6903 8.94042 3.45318 8.94042 3.20593C8.94042 2.95868 8.8422 2.72156 8.66737 2.54673C8.49254 2.3719 8.25542 2.27368 8.00817 2.27368H7.07592C6.33418 2.27368 5.62282 2.56834 5.09832 3.09283C4.57383 3.61732 4.27917 4.32869 4.27917 5.07043V27.4444C4.27917 28.1862 4.57383 28.8975 5.09832 29.422C5.62282 29.9465 6.33418 30.2412 7.07592 30.2412H23.8564C24.5982 30.2412 25.3095 29.9465 25.834 29.422C26.3585 28.8975 26.6532 28.1862 26.6532 27.4444V5.07043C26.6532 4.32869 26.3585 3.61732 25.834 3.09283C25.3095 2.56834 24.5982 2.27368 23.8564 2.27368H22.9242C22.6769 2.27368 22.4398 2.3719 22.265 2.54673C22.0901 2.72156 21.9919 2.95868 21.9919 3.20593C21.9919 3.45318 22.0901 3.6903 22.265 3.86513C22.4398 4.03996 22.6769 4.13818 22.9242 4.13818H23.8564C24.1037 4.13818 24.3408 4.2364 24.5156 4.41123C24.6904 4.58606 24.7887 4.82318 24.7887 5.07043V27.4444C24.7887 27.6917 24.6904 27.9288 24.5156 28.1036C24.3408 28.2784 24.1037 28.3767 23.8564 28.3767H7.07592C6.82867 28.3767 6.59155 28.2784 6.41672 28.1036C6.24189 27.9288 6.14367 27.6917 6.14367 27.4444V5.07043Z" fill="#E95A0A"/>
<path d="M20.7874 15.0529C20.9625 14.8779 21.0608 14.6405 21.0608 14.3929C21.0608 14.1453 20.9625 13.9079 20.7874 13.7329C20.6124 13.5578 20.3749 13.4595 20.1274 13.4595C19.8798 13.4595 19.6424 13.5578 19.4673 13.7329L14.5339 18.6682L12.3972 16.5296C12.2221 16.3546 11.9847 16.2562 11.7371 16.2562C11.4896 16.2562 11.2522 16.3546 11.0771 16.5296C10.9021 16.7047 10.8037 16.9421 10.8037 17.1896C10.8037 17.4372 10.9021 17.6746 11.0771 17.8497L13.8739 20.6464C13.9605 20.7332 14.0633 20.8021 14.1766 20.8491C14.2898 20.8961 14.4113 20.9203 14.5339 20.9203C14.6565 20.9203 14.7779 20.8961 14.8912 20.8491C15.0044 20.8021 15.1073 20.7332 15.1939 20.6464L20.7874 15.0529Z" fill="#E95A0A"/>
</g>
<defs>
<clipPath id="clip0_139_47">
<rect width="29.832" height="29.832" fill="white" transform="translate(0.550171 0.40918)"/>
</clipPath>
</defs>
</svg>
