<svg width="30" height="31" viewBox="0 0 30 31" fill="none" xmlns="http://www.w3.org/2000/svg">
<g clip-path="url(#clip0_138_22)">
<path d="M14.9648 0.265625C11.0203 0.265625 7.23741 1.83256 4.44826 4.62172C1.6591 7.41088 0.0921631 11.1938 0.0921631 15.1383C0.0921631 19.0827 1.6591 22.8656 4.44826 25.6548C7.23741 28.444 11.0203 30.0109 14.9648 30.0109C18.9093 30.0109 22.6922 28.444 25.4813 25.6548C28.2705 22.8656 29.8374 19.0827 29.8374 15.1383C29.8374 11.1938 28.2705 7.41088 25.4813 4.62172C22.6922 1.83256 18.9093 0.265625 14.9648 0.265625ZM3.88468 8.308C4.48888 10.7787 8.59187 13.0301 10.7949 14.2385C11.6872 14.7274 12.2691 15.0453 12.1762 15.1383C12.0262 15.287 11.8762 15.432 11.7263 15.5733C10.9529 16.3095 10.2632 16.9657 10.3171 17.9269C10.3822 19.1055 11.466 19.4588 12.574 19.8176C13.6467 20.1671 14.7454 20.524 14.9648 21.645C15.1172 22.4203 14.8254 23.4818 14.5558 24.4708C14.1561 25.9246 13.801 27.2223 14.9648 27.2223C17.7534 26.2927 22.0256 21.2992 22.4011 17.9269C22.6577 15.616 18.6829 14.2087 15.8943 13.2792C15.0057 12.9817 14.4907 13.4298 14.0538 13.8072C13.7341 14.086 13.4552 14.3258 13.1057 14.2087C12.2784 13.9336 8.45802 10.4906 10.3171 9.56102C11.7672 8.83598 12.0869 9.24312 12.5982 9.89937C12.7432 10.0834 12.9012 10.2861 13.1057 10.4906C14.2379 11.0557 14.3364 10.2452 14.4498 9.31376C14.5223 8.71514 14.6004 8.06632 14.9648 7.70194C15.7716 6.8951 17.3165 6.23141 18.735 5.61977C20.0587 5.05089 21.2726 4.52849 21.6705 3.98378C23.8814 5.31326 25.6472 7.26987 26.7437 9.60506C27.8402 11.9403 28.2179 14.5487 27.8288 17.099C27.4397 19.6493 26.3013 22.0264 24.5584 23.9284C22.8154 25.8304 20.5465 27.1714 18.0397 27.7811C15.533 28.3908 12.9016 28.2417 10.4798 27.3527C8.05798 26.4638 5.95503 24.875 4.43806 22.7883C2.9211 20.7017 2.05857 18.2112 1.96004 15.6332C1.86151 13.0553 2.53142 10.5044 3.88468 8.308Z" fill="#E95A0A"/>
</g>
<defs>
<clipPath id="clip0_138_22">
<rect width="29.7453" height="29.7453" fill="white" transform="translate(0.0921631 0.265625)"/>
</clipPath>
</defs>
</svg>
