<svg width="30" height="30" viewBox="0 0 30 30" fill="none" xmlns="http://www.w3.org/2000/svg">
<g clip-path="url(#clip0_139_57)">
<path d="M10.0159 3.151C8.24517 3.63867 6.48658 4.16929 4.74166 4.74237C4.5822 4.7938 4.44045 4.88907 4.33261 5.01729C4.22477 5.14552 4.15521 5.30151 4.13188 5.46742C3.10195 13.1956 5.48157 18.8342 8.32039 22.5486C9.52178 24.1375 10.955 25.5369 12.5721 26.7C13.2153 27.1536 13.7842 27.4808 14.2323 27.6908C14.4553 27.7962 14.6369 27.8693 14.777 27.9102C14.8387 27.929 14.9014 27.9445 14.9647 27.9567C15.0275 27.9444 15.0895 27.9289 15.1506 27.9102C15.2919 27.8681 15.4741 27.795 15.6972 27.6908C16.1434 27.4808 16.7141 27.1517 17.3574 26.7C18.9745 25.5369 20.4077 24.1375 21.6091 22.5486C24.4479 18.8361 26.8275 13.1956 25.7976 5.46742C25.7743 5.30151 25.7047 5.14552 25.5969 5.01729C25.489 4.88907 25.3473 4.7938 25.1878 4.74237C23.9775 4.34639 21.9344 3.70129 19.9136 3.15286C17.85 2.59328 15.9519 2.17871 14.9647 2.17871C13.9794 2.17871 12.0794 2.59142 10.0159 3.151ZM9.52135 1.23615C11.5385 0.687724 13.682 0.195068 14.9647 0.195068C16.2475 0.195068 18.391 0.687724 20.4081 1.23615C22.4717 1.79388 24.552 2.45385 25.7753 2.85355C26.2867 3.02245 26.7402 3.3322 27.0835 3.74721C27.4268 4.16223 27.6461 4.66567 27.7162 5.19971C28.8242 13.5228 26.2531 19.6912 23.1335 23.7719C21.8102 25.5171 20.2329 27.0542 18.4542 28.3322C17.8398 28.7755 17.1879 29.1643 16.5059 29.4941C15.9854 29.7395 15.4258 29.9403 14.9647 29.9403C14.5037 29.9403 13.946 29.7395 13.4236 29.4941C12.7415 29.1643 12.0896 28.7755 11.4752 28.3322C9.69657 27.0542 8.11931 25.5171 6.79594 23.7719C3.67641 19.6912 1.1053 13.5228 2.21331 5.19971C2.28338 4.66567 2.50266 4.16223 2.84599 3.74721C3.18931 3.3322 3.64274 3.02245 4.15419 2.85355C5.93008 2.27168 7.71965 1.73239 9.52135 1.23615Z" fill="#E95A0A"/>
<path d="M20.2706 9.76186C20.3572 9.8482 20.4258 9.95078 20.4727 10.0637C20.5196 10.1766 20.5437 10.2977 20.5437 10.42C20.5437 10.5422 20.5196 10.6633 20.4727 10.7762C20.4258 10.8892 20.3572 10.9917 20.2706 11.0781L14.6934 16.6553C14.607 16.7419 14.5044 16.8106 14.3915 16.8574C14.2786 16.9043 14.1575 16.9284 14.0352 16.9284C13.913 16.9284 13.7919 16.9043 13.679 16.8574C13.5661 16.8106 13.4635 16.7419 13.3771 16.6553L10.5885 13.8667C10.5021 13.7803 10.4335 13.6777 10.3868 13.5648C10.34 13.4518 10.3159 13.3308 10.3159 13.2086C10.3159 13.0864 10.34 12.9653 10.3868 12.8524C10.4335 12.7395 10.5021 12.6369 10.5885 12.5505C10.6749 12.464 10.7775 12.3955 10.8905 12.3487C11.0034 12.3019 11.1244 12.2779 11.2466 12.2779C11.3689 12.2779 11.4899 12.3019 11.6028 12.3487C11.7157 12.3955 11.8183 12.464 11.9047 12.5505L14.0352 14.6828L18.9544 9.76186C19.0407 9.67529 19.1433 9.60661 19.2562 9.55975C19.3692 9.51289 19.4902 9.48877 19.6125 9.48877C19.7348 9.48877 19.8558 9.51289 19.9687 9.55975C20.0817 9.60661 20.1843 9.67529 20.2706 9.76186Z" fill="#E95A0A"/>
</g>
<defs>
<clipPath id="clip0_139_57">
<rect width="29.7453" height="29.7453" fill="white" transform="translate(0.0921631 0.195068)"/>
</clipPath>
</defs>
</svg>
