<svg width="30" height="31" viewBox="0 0 30 31" fill="none" xmlns="http://www.w3.org/2000/svg">
<g clip-path="url(#clip0_139_66)">
<path d="M5.54319 2.9163C5.71773 2.71224 5.93441 2.54841 6.17832 2.43609C6.42222 2.32376 6.68757 2.26561 6.95609 2.26563H22.8326C23.1012 2.26561 23.3665 2.32376 23.6104 2.43609C23.8543 2.54841 24.071 2.71224 24.2455 2.9163L29.0959 8.57534C29.5289 9.0807 29.767 9.72427 29.767 10.3898V10.8639C29.7671 11.7841 29.4797 12.6813 28.9449 13.4302C28.4102 14.1791 27.6548 14.7421 26.7844 15.0407C25.914 15.3393 24.9721 15.3585 24.0902 15.0956C23.2084 14.8327 22.4307 14.3009 21.8659 13.5744C21.4535 14.1058 20.925 14.5357 20.3208 14.8312C19.7166 15.1267 19.0527 15.2799 18.3801 15.2792C17.7075 15.2799 17.0437 15.1267 16.4395 14.8312C15.8353 14.5357 15.3067 14.1058 14.8944 13.5744C14.482 14.1058 13.9535 14.5357 13.3492 14.8312C12.745 15.1267 12.0812 15.2799 11.4086 15.2792C10.736 15.2799 10.0721 15.1267 9.46792 14.8312C8.86371 14.5357 8.33517 14.1058 7.92281 13.5744C7.35801 14.3009 6.58034 14.8327 5.69849 15.0956C4.81665 15.3585 3.8747 15.3393 3.00429 15.0407C2.13389 14.7421 1.37853 14.1791 0.84378 13.4302C0.309034 12.6813 0.021627 11.7841 0.0217285 10.8639V10.3898C0.021752 9.72427 0.259796 9.0807 0.692856 8.57534L5.54319 2.9163ZM8.85235 10.8639C8.85235 11.5418 9.12167 12.192 9.60106 12.6714C10.0804 13.1508 10.7306 13.4201 11.4086 13.4201C12.0865 13.4201 12.7367 13.1508 13.2161 12.6714C13.6955 12.192 13.9648 11.5418 13.9648 10.8639C13.9648 10.6173 14.0628 10.3809 14.2371 10.2066C14.4114 10.0323 14.6478 9.93432 14.8944 9.93432C15.1409 9.93432 15.3773 10.0323 15.5516 10.2066C15.726 10.3809 15.8239 10.6173 15.8239 10.8639C15.8239 11.5418 16.0932 12.192 16.5726 12.6714C17.052 13.1508 17.7022 13.4201 18.3801 13.4201C19.0581 13.4201 19.7083 13.1508 20.1877 12.6714C20.667 12.192 20.9364 11.5418 20.9364 10.8639C20.9364 10.6173 21.0343 10.3809 21.2086 10.2066C21.3829 10.0323 21.6194 9.93432 21.8659 9.93432C22.1124 9.93432 22.3489 10.0323 22.5232 10.2066C22.6975 10.3809 22.7954 10.6173 22.7954 10.8639C22.7954 11.5418 23.0648 12.192 23.5441 12.6714C24.0235 13.1508 24.6737 13.4201 25.3517 13.4201C26.0296 13.4201 26.6798 13.1508 27.1592 12.6714C27.6386 12.192 27.9079 11.5418 27.9079 10.8639V10.3898C27.9079 10.1682 27.8288 9.95398 27.6848 9.7856L22.8326 4.1247H6.95609L2.1039 9.7856C1.95991 9.95398 1.88079 10.1682 1.88081 10.3898V10.8639C1.88081 11.5418 2.15012 12.192 2.62951 12.6714C3.1089 13.1508 3.75909 13.4201 4.43704 13.4201C5.115 13.4201 5.76518 13.1508 6.24457 12.6714C6.72396 12.192 6.99327 11.5418 6.99327 10.8639C6.99327 10.6173 7.09121 10.3809 7.26553 10.2066C7.43985 10.0323 7.67628 9.93432 7.92281 9.93432C8.16934 9.93432 8.40577 10.0323 8.5801 10.2066C8.75442 10.3809 8.85235 10.6173 8.85235 10.8639ZM2.81035 16.2087C3.05688 16.2087 3.29331 16.3066 3.46763 16.481C3.64195 16.6553 3.73989 16.8917 3.73989 17.1383V28.2927H26.0488V17.1383C26.0488 16.8917 26.1468 16.6553 26.3211 16.481C26.4954 16.3066 26.7318 16.2087 26.9784 16.2087C27.2249 16.2087 27.4613 16.3066 27.6357 16.481C27.81 16.6553 27.9079 16.8917 27.9079 17.1383V28.2927H28.8374C29.084 28.2927 29.3204 28.3907 29.4947 28.565C29.6691 28.7393 29.767 28.9757 29.767 29.2223C29.767 29.4688 29.6691 29.7052 29.4947 29.8795C29.3204 30.0539 29.084 30.1518 28.8374 30.1518H0.951268C0.704739 30.1518 0.468307 30.0539 0.293984 29.8795C0.119662 29.7052 0.0217285 29.4688 0.0217285 29.2223C0.0217285 28.9757 0.119662 28.7393 0.293984 28.565C0.468307 28.3907 0.704739 28.2927 0.951268 28.2927H1.88081V17.1383C1.88081 16.8917 1.97874 16.6553 2.15306 16.481C2.32739 16.3066 2.56382 16.2087 2.81035 16.2087ZM6.5285 17.1383C6.77503 17.1383 7.01146 17.2362 7.18579 17.4105C7.36011 17.5848 7.45804 17.8213 7.45804 18.0678V24.5746H22.3307V18.0678C22.3307 17.8213 22.4286 17.5848 22.6029 17.4105C22.7773 17.2362 23.0137 17.1383 23.2602 17.1383C23.5067 17.1383 23.7432 17.2362 23.9175 17.4105C24.0918 17.5848 24.1898 17.8213 24.1898 18.0678V24.5746C24.1898 25.0676 23.9939 25.5405 23.6452 25.8891C23.2966 26.2378 22.8237 26.4336 22.3307 26.4336H7.45804C6.96498 26.4336 6.49212 26.2378 6.14348 25.8891C5.79483 25.5405 5.59896 25.0676 5.59896 24.5746V18.0678C5.59896 17.8213 5.6969 17.5848 5.87122 17.4105C6.04554 17.2362 6.28197 17.1383 6.5285 17.1383Z" fill="#E95A0A"/>
</g>
<defs>
<clipPath id="clip0_139_66">
<rect width="29.7453" height="29.7453" fill="white" transform="translate(0.0217285 0.406494)"/>
</clipPath>
</defs>
</svg>
