<svg width="34" height="34" viewBox="0 0 34 34" fill="none" xmlns="http://www.w3.org/2000/svg">
<g clip-path="url(#clip0_139_39)">
<path d="M0.0921631 7.58568C0.0921631 6.75365 0.422688 5.95569 1.01103 5.36735C1.59936 4.77901 2.39732 4.44849 3.22936 4.44849H22.0525C22.8846 4.44849 23.6825 4.77901 24.2709 5.36735C24.8592 5.95569 25.1897 6.75365 25.1897 7.58568V10.7229H27.323C27.793 10.7233 28.257 10.8293 28.6805 11.0331C29.1041 11.2369 29.4764 11.5333 29.77 11.9004L32.8675 15.7696C33.3132 16.3263 33.5559 17.0182 33.5556 17.7314V22.2259C33.5556 23.058 33.2251 23.8559 32.6367 24.4443C32.0484 25.0326 31.2504 25.3631 30.4184 25.3631H29.3727C29.3727 26.4725 28.9319 27.5364 28.1475 28.3209C27.363 29.1053 26.2991 29.546 25.1897 29.546C24.0803 29.546 23.0164 29.1053 22.2319 28.3209C21.4475 27.5364 21.0068 26.4725 21.0068 25.3631H10.5495C10.5507 25.9207 10.4404 26.4728 10.2251 26.9872C10.0099 27.5015 9.69395 27.9676 9.29596 28.358C8.89796 28.7485 8.42592 29.0555 7.90758 29.2609C7.38925 29.4663 6.83508 29.566 6.27765 29.5541C5.72023 29.5423 5.17079 29.4191 4.66165 29.1919C4.15252 28.9646 3.69395 28.6379 3.31291 28.2308C2.93187 27.8238 2.63604 27.3447 2.44283 26.8217C2.24962 26.2987 2.16291 25.7423 2.18781 25.1853C1.57511 24.9697 1.04445 24.5692 0.669081 24.0391C0.293708 23.509 0.092128 22.8755 0.0921631 22.2259L0.0921631 7.58568ZM2.79852 23.1796C3.17705 22.5611 3.70991 22.0515 4.34479 21.701C4.97968 21.3506 5.69477 21.1712 6.41992 21.1804C7.14506 21.1897 7.85533 21.3874 8.48104 21.754C9.10674 22.1206 9.62638 22.6436 9.98897 23.2717H21.5673C21.9344 22.6358 22.4624 22.1078 23.0983 21.7407V7.58568C23.0983 7.30834 22.9881 7.04235 22.792 6.84624C22.5959 6.65012 22.3299 6.53995 22.0525 6.53995H3.22936C2.95201 6.53995 2.68603 6.65012 2.48991 6.84624C2.2938 7.04235 2.18363 7.30834 2.18363 7.58568V22.2259C2.18346 22.4272 2.24139 22.6243 2.35046 22.7934C2.45953 22.9626 2.61511 23.0967 2.79852 23.1796ZM25.1897 21.1802C25.924 21.1802 26.6453 21.3735 27.2811 21.7406C27.917 22.1078 28.445 22.6358 28.8121 23.2717H30.4184C30.6957 23.2717 30.9617 23.1615 31.1578 22.9654C31.3539 22.7693 31.4641 22.5033 31.4641 22.2259V17.7293C31.4637 17.492 31.3826 17.2618 31.2341 17.0767L28.1387 13.2075C28.0409 13.0851 27.9168 12.9861 27.7756 12.9181C27.6344 12.85 27.4798 12.8146 27.323 12.8143H25.1897V21.1802ZM6.36655 23.2717C5.81186 23.2717 5.27989 23.492 4.88767 23.8842C4.49544 24.2765 4.27509 24.8084 4.27509 25.3631C4.27509 25.9178 4.49544 26.4498 4.88767 26.842C5.27989 27.2342 5.81186 27.4546 6.36655 27.4546C6.92124 27.4546 7.45322 27.2342 7.84544 26.842C8.23767 26.4498 8.45802 25.9178 8.45802 25.3631C8.45802 24.8084 8.23767 24.2765 7.84544 23.8842C7.45322 23.492 6.92124 23.2717 6.36655 23.2717ZM25.1897 23.2717C24.635 23.2717 24.1031 23.492 23.7108 23.8842C23.3186 24.2765 23.0983 24.8084 23.0983 25.3631C23.0983 25.9178 23.3186 26.4498 23.7108 26.842C24.1031 27.2342 24.635 27.4546 25.1897 27.4546C25.7444 27.4546 26.2764 27.2342 26.6686 26.842C27.0608 26.4498 27.2812 25.9178 27.2812 25.3631C27.2812 24.8084 27.0608 24.2765 26.6686 23.8842C26.2764 23.492 25.7444 23.2717 25.1897 23.2717Z" fill="#E95A0A"/>
</g>
<defs>
<clipPath id="clip0_139_39">
<rect width="33.4634" height="33.4634" fill="white" transform="translate(0.0921631 0.265625)"/>
</clipPath>
</defs>
</svg>
